<?xml version="1.0" encoding="UTF-8"?>
<svg version="1.1" xmlns="http://www.w3.org/2000/svg" width="512" height="512">
<path d="M0 0 C5.97411912 5.61680272 11.34834757 11.47280153 16.25 18.0625 C16.66620605 18.61969727 17.08241211 19.17689453 17.51123047 19.75097656 C31.25 38.24100744 31.25 38.24100744 31.25 43.0625 C31.91 43.0625 32.57 43.0625 33.25 43.0625 C33.48589844 42.22074219 33.72179687 41.37898438 33.96484375 40.51171875 C35.4484449 36.5298956 37.42640389 33.36536024 39.8125 29.875 C40.25795166 29.21717529 40.70340332 28.55935059 41.16235352 27.8815918 C45.20221318 21.9933835 49.55679848 16.44633987 54.25 11.0625 C55.10335938 10.07507813 55.95671875 9.08765625 56.8359375 8.0703125 C76.59105393 -14.37121398 104.86915241 -32.3248964 135.25 -34.9375 C135.94319336 -35.00163086 136.63638672 -35.06576172 137.35058594 -35.13183594 C173.56124759 -38.30501342 208.6796695 -28.96394173 236.89746094 -5.57177734 C260.73255168 14.94274809 276.34097719 40.91865222 284.0625 71.3125 C284.25739014 72.07908936 284.45228027 72.84567871 284.65307617 73.63549805 C287.54741848 85.74479355 288.60228112 97.731269 288.56567383 110.13842773 C288.56251707 112.36296876 288.58607618 114.58616894 288.61132812 116.81054688 C288.67088159 130.2612945 286.68340884 143.25097374 282.9375 156.1875 C282.72367676 156.93281982 282.50985352 157.67813965 282.28955078 158.44604492 C274.10741669 186.1796395 258.53365636 210.90268221 240.25 233.0625 C239.7977002 233.61244629 239.34540039 234.16239258 238.87939453 234.72900391 C228.12392857 247.7523956 216.56997506 259.91010777 204.61499023 271.82788086 C202.55139939 273.88607157 200.49326325 275.9496098 198.43554688 278.01367188 C197.0992791 279.34927934 195.76270143 280.68457684 194.42578125 282.01953125 C193.82349197 282.62384476 193.2212027 283.22815826 192.60066223 283.8507843 C188.88033688 287.55104742 185.03973876 291.06210299 181.06396484 294.48664856 C178.28773031 296.8984556 175.61914467 299.42173899 172.9375 301.9375 C169.00064209 305.60524901 165.01490804 309.13435462 160.8125 312.5 C156.43747345 316.00893687 152.32984341 319.72099227 148.25 323.5625 C143.27057262 328.2500928 138.16819313 332.67482481 132.828125 336.953125 C130.2257371 339.08235146 127.73424498 341.29699357 125.25 343.5625 C120.95008209 347.48141252 116.49080453 351.15420869 111.96875 354.8125 C108.47091849 357.70725711 105.13214596 360.75839539 101.77734375 363.81640625 C99.18037607 366.12437598 96.51595987 368.31805863 93.8125 370.5 C90.00912497 373.57586588 86.34917348 376.75003166 82.75 380.0625 C78.2801488 384.17628909 73.65955107 388.03337297 68.93359375 391.84765625 C66.30291443 394.01882827 63.77057576 396.26491357 61.25 398.5625 C56.07643291 403.26723828 50.72296082 407.71111667 45.25 412.0625 C44.58871094 412.60390625 43.92742187 413.1453125 43.24609375 413.703125 C39.30432806 416.77188218 36.24877316 417.97323619 31.25 418.0625 C25.77487617 416.92905331 22.25795313 414.89079141 18.1875 411.1875 C17.04951631 410.18875976 15.91149415 409.19006335 14.7734375 408.19140625 C14.19303711 407.67465332 13.61263672 407.15790039 13.01464844 406.62548828 C10.14754695 404.08603286 7.22667695 401.61009317 4.3125 399.125 C3.13501506 398.11505137 1.95793337 397.10463242 0.78125 396.09375 C-1.55027282 394.09162555 -3.88355023 392.09158456 -6.21875 390.09375 C-12.88066988 384.39305401 -19.52010237 378.66744084 -26.14208984 372.92041016 C-32.07888478 367.77088251 -38.04453455 362.65549766 -44.01611328 357.54638672 C-46.92894046 355.05354476 -49.83934061 352.55787234 -52.75 350.0625 C-53.91665518 349.0624866 -55.08332184 348.06248659 -56.25 347.0625 C-58.58333333 345.0625 -60.91666667 343.0625 -63.25 341.0625 C-63.82766113 340.56741943 -64.40532227 340.07233887 -65.00048828 339.56225586 C-66.16575722 338.56333776 -67.33079677 337.564152 -68.49560547 336.56469727 C-71.43182348 334.04588682 -74.37202443 331.53201993 -77.3203125 329.02734375 C-84.03022591 323.31812819 -90.60973137 317.50083392 -97.078125 311.51953125 C-99.93648498 308.89101015 -102.84591534 306.3313456 -105.77734375 303.78515625 C-119.10868701 292.14332976 -131.96903245 280.03029131 -144.48095703 267.5168457 C-146.50664755 265.49335968 -148.54025336 263.47805466 -150.57421875 261.46289062 C-157.7697135 254.29801546 -164.46789964 247.04944948 -170.75 239.0625 C-171.69564562 237.94821678 -172.64877947 236.8401898 -173.61328125 235.7421875 C-203.51159918 201.50456027 -224.2936159 158.94933814 -224.0625 112.9375 C-224.06034485 112.16492859 -224.0581897 111.39235718 -224.05596924 110.59637451 C-224.00343815 98.85279221 -223.54735685 87.51798038 -220.75 76.0625 C-220.45996094 74.83249268 -220.45996094 74.83249268 -220.1640625 73.57763672 C-213.83670493 47.45287566 -201.93278581 24.79275694 -183.75 5.0625 C-183.01265625 4.24265625 -182.2753125 3.4228125 -181.515625 2.578125 C-132.65538422 -49.22107763 -50.40680143 -46.33415743 0 0 Z M-151.75 18.0625 C-152.57757813 18.72636719 -153.40515625 19.39023438 -154.2578125 20.07421875 C-175.69328134 38.25068997 -189.55740599 66.91444367 -192.58227539 94.71508789 C-193.8401098 112.31927683 -193.62005409 130.02112137 -188.75 147.0625 C-188.55696289 147.75988281 -188.36392578 148.45726562 -188.16503906 149.17578125 C-180.52459123 175.82325449 -163.97579874 199.56221734 -145.75 220.0625 C-144.58331155 221.4166479 -143.41664231 222.77081235 -142.25 224.125 C-134.13773423 233.30358859 -125.78391738 242.19479697 -117.10571289 250.8371582 C-115.54910611 252.38834727 -113.99799829 253.94489392 -112.44726562 255.50195312 C-107.61473383 260.33769839 -102.73858643 265.07091505 -97.5402832 269.51733398 C-94.58746031 272.0658702 -91.7741716 274.76133292 -88.9375 277.4375 C-83.98309655 282.07960665 -78.89718885 286.44474892 -73.59375 290.6875 C-70.19364475 293.52714834 -66.97418938 296.52643188 -63.75 299.5625 C-58.77059367 304.25011258 -53.66819066 308.67482678 -48.328125 312.953125 C-45.7257371 315.08235146 -43.23424498 317.29699357 -40.75 319.5625 C-37.33260628 322.67708668 -33.8447765 325.6543662 -30.25 328.5625 C-25.78723787 332.17282442 -21.52280467 335.94677929 -17.28125 339.8125 C-14.6615519 342.14112053 -11.9748469 344.35812947 -9.25 346.5625 C-4.78723787 350.17282442 -0.52280467 353.94677929 3.71875 357.8125 C7.21905208 360.92387963 10.86272741 363.84513067 14.50390625 366.7890625 C18.12590778 369.78764698 21.59742454 372.93542075 25.05859375 376.1171875 C27.05317928 377.88778214 29.09128295 379.49878241 31.25 381.0625 C39.82502594 377.25359313 46.85895783 369.56446248 53.71875 363.3125 C57.22799486 360.19317124 60.88162123 357.26500867 64.53125 354.3125 C67.17147729 352.12748431 69.7172972 349.87078609 72.25 347.5625 C76.54991791 343.64358748 81.00919547 339.97079131 85.53125 336.3125 C88.17147729 334.12748431 90.7172972 331.87078609 93.25 329.5625 C97.54991791 325.64358748 102.00919547 321.97079131 106.53125 318.3125 C110.03335288 315.41420796 113.3761686 312.35939027 116.734375 309.296875 C119.26330295 307.05068434 121.86049914 304.92718782 124.5 302.8125 C130.25946426 298.15591188 135.62948699 293.13415823 141.02734375 288.0703125 C144.07730837 285.21146607 147.19430715 282.44226792 150.35546875 279.70703125 C154.37427107 276.21854511 158.3160762 272.64614291 162.25 269.0625 C162.75821289 268.60085449 163.26642578 268.13920898 163.79003906 267.66357422 C172.49742241 259.72849336 180.91103723 251.50638967 189.25 243.1875 C189.74454681 242.69554138 190.23909363 242.20358276 190.74862671 241.69671631 C196.46986147 235.99913529 202.01966702 230.21714429 207.25 224.0625 C208.11882812 223.07507813 208.98765625 222.08765625 209.8828125 221.0703125 C229.55499371 198.31471731 246.6273414 172.44710157 254.25 143.0625 C254.56839844 141.90878906 254.88679688 140.75507813 255.21484375 139.56640625 C262.29408383 109.25942915 256.97111907 74.32273231 241.34765625 47.421875 C237.97439504 42.01963172 234.2844463 36.98730686 230.25 32.0625 C229.22132813 30.78632812 229.22132813 30.78632812 228.171875 29.484375 C210.86547659 9.10128354 186.32325157 -2.36419812 159.88330078 -4.52783203 C134.26742909 -6.29016951 111.12634859 1.78201504 91.25 18.0625 C90.44820313 18.71089844 89.64640625 19.35929687 88.8203125 20.02734375 C82.83982086 25.08696384 78.01890602 30.86889397 73.25 37.0625 C72.58097656 37.91585937 71.91195313 38.76921875 71.22265625 39.6484375 C61.12377944 52.96695622 53.79918667 68.00248608 47.91796875 83.59375 C44.9372881 91.39083209 44.9372881 91.39083209 41.5 94.75 C35.85064963 97.03146842 30.81583134 98.06535927 25 95.75 C19.96370595 92.78981139 18.35496427 88.30871864 16.25 83.0625 C15.71286236 81.73672668 15.17505738 80.41122361 14.63671875 79.0859375 C14.20697754 78.02741577 14.20697754 78.02741577 13.76855469 76.94750977 C13.47368164 76.22233154 13.17880859 75.49715332 12.875 74.75 C12.42688965 73.64579712 12.42688965 73.64579712 11.96972656 72.51928711 C5.62619824 57.07350954 -3.20640765 42.3426617 -14.7421875 30.2109375 C-16.75 28.0625 -16.75 28.0625 -18.69140625 25.5625 C-33.32531988 7.79076428 -57.74438549 -2.20008945 -80.09375 -4.67578125 C-106.19635835 -6.54423719 -131.47504467 1.54567502 -151.75 18.0625 Z " fill="#000000" transform="translate(223.75,64.9375)"/>
</svg>
